<svg xmlns="http://www.w3.org/2000/svg" viewBox="0 0 300 190" fill="none"><ellipse cx="150" cy="177" rx="128" ry="9" fill="#e6e9d9"/><path d="M61 173 L67 99 Q86 76 108 99 L118 173" fill="#6c8765"/><circle cx="88" cy="70" r="17" fill="#ab825e"/> <path d="M75 113 L114 138 L137 115" fill="none" stroke="#ab825e" stroke-width="10" stroke-linecap="round"/><rect x="125" y="91" width="22" height="35" rx="4" fill="#244c42"/><rect x="129" y="96" width="14" height="22" fill="#f4eddd"/><path d="M165 36 H252 Q266 36 266 51 V88 Q266 103 251 103 H190 L168 119 V103 H165 Q150 103 150 88 V51 Q150 36 165 36" fill="#fffaf2" stroke="#91a68c" stroke-width="2"/><path d="M168 58 H243 M168 73 H222 M168 88 H231" stroke="#6c8765" stroke-width="3" stroke-linecap="round"/></svg>